<svg xmlns="http://www.w3.org/2000/svg" viewBox="0 0 640 480">
  <defs>
    <clipPath id="sa-a">
      <path fill-opacity=".7" d="M0 0h640v480H0z"/>
    </clipPath>
  </defs>
  <g fill-rule="evenodd" clip-path="url(#sa-a)">
    <path fill="#165d31" d="M0 0h640v480H0z"/>
    <path fill="#fff" d="M74.4 208.8c0-7.6 5.9-13.8 13.8-13.8 7.6 0 13.8 6.2 13.8 13.8 0 7.3-6.2 13.5-13.8 13.5s-13.8-6.2-13.8-13.5zm37.8-9h364.3c5.5 0 10.4 6.2 10.4 13.8 0 7.3-4.9 13.5-10.4 13.5H112.2c-5.9 0-10.7-6.2-10.7-13.5 0-7.6 4.8-13.8 10.7-13.8zm69.5 96.7c-.7 6.9-5.2 9.3-13.1 10.7 5.5 9 4.8 15.9-3.5 22.8 11.7 1 14.9 6.2 14.9 14.5-3.5-5.9-6.6-6.6-13.8-5.2 2.8 11 1.7 14.2-7.3 20.7 13.8 2.4 16.6 6.9 13.8 20.4 4.2-9 9-8.6 15.6-5.2-3.5-6.6-1.7-9.3 4.8-13.5-10.3-7.3-9.3-14.5-3.4-22.8-9.7 0-12.1-3.8-12.1-11 4.1 5.9 8.3 5.9 13.8 2.4-5.5-8.3-5.2-13.8 2.4-19.3-9 .7-13.1-1-12.1-14.5zm4.8-119.5l-17.6 13.8 6.6-21.7-16.6-14.9h20.7l7.6-20.7 6.9 20.7h21l-16.6 14.9 6.6 21.7zm74.4 0l-17.6 13.8 6.6-21.7-16.6-14.9h20.7l7.6-20.7 6.9 20.7h21l-16.6 14.9 6.6 21.7zm74 0l-17.3 13.8 6.6-21.7-16.6-14.9h20.7l7.6-20.7 6.9 20.7h20.7l-16.6 14.9 6.9 21.7zm75.4 0l-17.3 13.8 6.2-21.7-16.2-14.9h20.7l7.2-20.7 7.3 20.7H438l-16.6 14.9 6.6 21.7zm27.6 69.5c-.7 6.9-5.2 9.3-13.1 10.7 5.5 9 4.8 15.9-3.5 22.8 11.7 1 14.9 6.2 14.9 14.5-3.5-5.9-6.6-6.6-13.8-5.2 2.8 11 1.7 14.2-7.3 20.7 13.8 2.4 16.6 6.9 13.8 20.4 4.2-9 9-8.6 15.6-5.2-3.5-6.6-1.7-9.3 4.8-13.5-10.3-7.3-9-14.5-3.4-22.8-9.7 0-12.1-3.8-12.1-11 4.1 5.9 8.3 5.9 13.8 2.4-5.5-8.3-5.2-13.8 2.4-19.3-9 .7-13.1-1-12.1-14.5z"/>
    <path fill="#fff" d="M107.2 363.3l-4.2.3c-2.4 0-4.8.4-6.6-1.4-1.7-1.7-2-4.1-2-6.6 0-2 .4-4.2 1.8-5.9 1.7-2 4.1-2 6.6-2h2c-3.8-3.8-2.7-12.8 2.8-14.2 7.2-1.7 10 5.5 10.7 10.7.3 2.8 0 5.2-1.4 7.6.3 0 1.7-.3 2.4-.7a6 6 0 0 1 6.9 1.4c1.8 2 2.1 5.1 1.8 7.6 0 2.8-1 5.9-2.8 7.2-2 1.4-4.8 1.4-7.6 1.4h-9.3c0-.3-.3-4.1-.3-4.1l9 .3c1 0 2 0 3.1-.4 2.8-1 2.1-4.8 1-6.6-1-2-3.4-2.7-5.2-1.7l-3.4 2-2.8-2.4c.7-1 1.4-1.7 1.7-3.1.4-1.4.4-3.1.4-4.5-.4-2.4-1.4-6.2-4.5-6.2-3.8 0-4.5 5.2-4.2 7.6.7 5.2 4.5 4.8 4.5 4.8v3.5h-3.1c-1.8 0-5.9.3-6.6 2.4-.7 1.7.7 3.8 2.4 4.1 1.4.4 2.8.4 4.2.4h4.5l-.3 4.1h.3zm17.6-65c-3 2.7-7.2 2.7-11 1.7-4.1-1-7.6-3.4-9.6-7.2a16.6 16.6 0 0 1-2-5.5c-.4-2.1-.7-4.5 0-6.6 1.3-5.2 4.8-10.3 10.6-11 7.3-.7 13.8 5.5 15.6 12 2 6.6-1 15.3-3.6 16.6zm-4.8-3.4c1.7-2.4 2.4-5.2 2.4-8.3 0-3.4-.7-7.2-3.1-9.6-4.8-5.2-11.7-.4-13.5 4.8-2 5.5.3 14.6 6.6 15.5 3 .3 5.9-.7 7.6-2.4z"/>
  </g>
</svg>