<svg xmlns="http://www.w3.org/2000/svg" width="400" height="400" viewBox="0 0 400 400">
  <defs>
    <linearGradient id="bg" x1="0%" y1="0%" x2="0%" y2="100%">
      <stop offset="0%" style="stop-color:#fdf2f2"/>
      <stop offset="100%" style="stop-color:#faebf5"/>
    </linearGradient>
  </defs>
  <rect width="400" height="400" fill="url(#bg)" stroke="#e8b4b4" stroke-width="2"/>
  <rect x="105" y="85" width="190" height="190" rx="18" fill="#fadbd8" stroke="#e74c3c" stroke-width="3"/>
  <rect x="127" y="107" width="146" height="146" rx="10" fill="#fdedec" stroke="#cb4335" stroke-width="3"/>
  <circle cx="168" cy="148" r="16" fill="#f9e79f" stroke="#f4d03f" stroke-width="3"/>
  <g stroke="#f4d03f" stroke-width="2">
    <line x1="168" y1="124" x2="168" y2="118"/><line x1="185" y1="131" x2="189" y2="127"/>
    <line x1="192" y1="148" x2="198" y2="148"/><line x1="185" y1="165" x2="189" y2="169"/>
    <line x1="168" y1="172" x2="168" y2="178"/><line x1="151" y1="165" x2="147" y2="169"/>
    <line x1="144" y1="148" x2="138" y2="148"/><line x1="151" y1="131" x2="147" y2="127"/>
  </g>
  <polygon points="271,251 230,160 190,210 129,251" fill="#f1948a" stroke="#cb4335" stroke-width="2"/>
  <polygon points="271,251 250,190 210,220 170,251" fill="#e74c3c" stroke="#b03a2e" stroke-width="2"/>
  <text x="200" y="340" text-anchor="middle" font-family="-apple-system,BlinkMacSystemFont,Segoe UI,Roboto,Arial,sans-serif" font-size="26" font-weight="500" fill="#c0392b">No Image</text>
</svg>
