<svg xmlns="http://www.w3.org/2000/svg" viewBox="0 0 640 480">
  <defs>
    <clipPath id="jo-a">
      <path fill-opacity=".7" d="M0 0h640v480H0z"/>
    </clipPath>
  </defs>
  <g clip-path="url(#jo-a)">
    <path fill="#fff" d="M0 0h640v480H0"/>
    <path fill="#000" d="M0 0h640v160H0"/>
    <path fill="#0d6a37" d="M0 320h640v160H0"/>
    <path fill="#ce1126" d="M0 0v480l320-240"/>
    <path d="M156.7 240L81 193.3l75.7-46.6 75.7 46.6z" fill="#fff"/>
    <path d="M156.7 240l-11.3 35 28.2-20.5h-33.8l28.3 20.5z" fill="#fff"/>
    <path d="M145.4 275l-11.3-35-64.4 35 64.4 35z" fill="#fff"/>
    <path d="M145.4 275L156.7 310l28.3-20.5h-33.8l28.2 20.5z" fill="#fff"/>
    <path d="M168 289.5l-11.3-35-64.4 35 64.4 35z" fill="#fff"/>
    <path d="M168 289.5l11.3 35 28.2-20.5H173.7l28.3 20.5z" fill="#fff"/>
    <path d="M179.3 324.5L168 289.5l64.4 35-64.4 35z" fill="#fff"/>
    <path d="M179.3 324.5l-11.3 35 28.3-20.5h-33.8l28.2 20.5z" fill="#fff"/>
    <path d="M168 359.5l-11.3-35-64.4 35 64.4 35z" fill="#fff"/>
    <path d="M168 359.5l11.3 35 28.3-20.5H173.8l28.2 20.5z" fill="#fff"/>
    <path d="M179.3 394.5L168 359.5l64.4 35-64.4 35z" fill="#fff"/>
    <path d="M179.3 394.5l-11.3 35 28.2-20.5h-33.7l28.2 20.5z" fill="#fff"/>
    <path d="M168 185.5l11.3-35-28.3 20.5h33.8L156.7 150.5z" fill="#fff"/>
    <path d="M179.3 150.5l11.3 35 64.4-35-64.4-35z" fill="#fff"/>
    <path d="M179.3 150.5l-11.3-35-28.2 20.5h33.7L145.4 115.5z" fill="#fff"/>
    <path d="M168 115.5l-11.3-35-64.4 35 64.4 35z" fill="#fff"/>
    <path d="M168 115.5l11.3-35-28.3 20.5h33.8L156.7 80.5z" fill="#fff"/>
    <path d="M179.3 80.5l11.3 35 64.4-35-64.4-35z" fill="#fff"/>
    <path d="M179.3 80.5l-11.3-35-28.2 20.5h33.7L145.4 45.5z" fill="#fff"/>
  </g>
</svg>